<svg width="45" height="45" fill="none" xmlns="http://www.w3.org/2000/svg"><path fill-rule="evenodd" clip-rule="evenodd" d="M22.5 45C34.926 45 45 34.926 45 22.5S34.926 0 22.5 0 0 10.074 0 22.5 10.074 45 22.5 45zM11.466 13.447h22.171a2.367 2.367 0 012.364 2.365v14.185a2.367 2.367 0 01-2.364 2.364H11.466A2.368 2.368 0 019.1 29.997V15.812c0-1.3 1.058-2.365 2.365-2.365zm12.757 10.611l9.083-9.035h-21.51l9.082 9.034a2.35 2.35 0 001.673.694c.632 0 1.226-.246 1.672-.693zm-13.545-7.925v13.543l6.81-6.767-6.81-6.776zm7.928 7.887l-6.808 6.765h21.507l-6.808-6.765-1.16 1.154a3.913 3.913 0 01-2.786 1.153 3.915 3.915 0 01-2.786-1.154l-1.159-1.153zm9.008-1.111l6.811 6.767V16.133l-6.81 6.776z" fill="#161C23"/></svg>