<svg width="32" height="227" fill="none" xmlns="http://www.w3.org/2000/svg"><path d="M31.347 227v-3.321H0V227h31.347zm0-17.842v-3.321H3.069v-11.363H0v26.047h3.07v-11.363h28.277zm0-17.403v-20.331h-3.07v17.01H16.98v-14.3h-3.07v14.3H3.07v-17.01H0v20.331h31.347zm0-24.864v-3.32H19.439v-10.392l11.908-5.987v-3.818l-12.691 6.416c-.711-1.822-1.865-3.223-3.461-4.202-1.597-.979-3.418-1.468-5.464-1.468-2.453 0-4.565.685-6.335 2.056-1.77 1.37-2.845 3.328-3.222 5.873a8.72 8.72 0 00-.13 1.22A14 14 0 000 154.331v12.56h31.347zm-14.955-3.32H3.069v-9.15c0-.271.015-.587.044-.948.014-.377.058-.731.13-1.062.349-1.672 1.154-2.899 2.417-3.683a7.412 7.412 0 014.07-1.197c1.452 0 2.809.399 4.071 1.197 1.263.784 2.061 2.011 2.395 3.683.072.331.123.685.152 1.062.03.361.044.677.044.948v9.15zm14.955-24.731v-3.321H0v3.321h31.347zM32 116.954c0-2.485-.493-4.676-1.48-6.573-1.002-1.913-2.402-3.412-4.202-4.496-1.8-1.084-3.896-1.626-6.29-1.626H0v3.343h19.614c1.625 0 3.033.286 4.223.858 1.175.558 2.148 1.303 2.917 2.237a9.36 9.36 0 011.676 3.027c.363 1.099.544 2.176.544 3.23 0 1.04-.181 2.109-.544 3.208a9.614 9.614 0 01-1.676 3.05c-.77.919-1.742 1.664-2.917 2.236-1.19.573-2.598.859-4.223.859H0l.022 3.343h20.005c2.41 0 4.514-.542 6.313-1.626 1.8-1.085 3.193-2.583 4.18-4.496.987-1.912 1.48-4.104 1.48-6.574zm-.653-18.124v-3.185H7.14l24.207-11.567v-2.146L7.14 70.343h24.185v-3.162H0v3.094l26.362 12.719L0 95.78v3.05h31.347zm0-35.956v-1.525h-1.47v1.525h1.47zm0-10.006V51.8H14.743v-6.71h-1.029v14.487h1.029v-6.71h16.604zm0-9.298V32.388h-1.029v10.114h-7.273v-8.59h-1.029v8.59h-7.273V32.388h-1.029V43.57h17.633zm.367-20.26c0-2.135-.534-3.854-1.604-5.16-1.077-1.304-2.51-2.185-4.298-2.642l-.245 1.118c1.551.407 2.792 1.17 3.723 2.287.93 1.11 1.396 2.576 1.396 4.397 0 1.567-.347 2.88-1.041 3.94-.702 1.05-1.665 1.838-2.89 2.363-1.224.525-2.633.78-4.224.762-1.592-.017-3-.288-4.225-.813-1.233-.525-2.196-1.305-2.89-2.338-.694-1.042-1.04-2.347-1.04-3.914 0-1.821.465-3.287 1.395-4.397.923-1.118 2.164-1.88 3.723-2.287l-.245-1.118c-1.788.457-3.216 1.338-4.286 2.643-1.077 1.305-1.616 3.024-1.616 5.159 0 1.821.392 3.342 1.175 4.562.784 1.211 1.866 2.122 3.245 2.732 1.38.61 2.968.915 4.764.915 1.796 0 3.383-.305 4.763-.915 1.38-.61 2.461-1.52 3.245-2.732.783-1.22 1.175-2.74 1.175-4.562zm-.367-10.094v-1.068h-8.302V1.068h8.302V0H13.714v1.067h8.302v11.081h-8.302v1.068h17.633z" fill="#161C23"/></svg>