<svg width="45" height="45" fill="none" xmlns="http://www.w3.org/2000/svg"><path fill-rule="evenodd" clip-rule="evenodd" d="M22.5 45C34.926 45 45 34.926 45 22.5S34.926 0 22.5 0 0 10.074 0 22.5 10.074 45 22.5 45zm.052-34.875a12.273 12.273 0 018.717 3.597 12.159 12.159 0 013.606 8.676c-.003 6.762-5.532 12.264-12.323 12.264h-.005c-2.063 0-4.09-.515-5.89-1.492l-6.532 1.705 1.748-6.355a12.198 12.198 0 01-1.645-6.132c.003-6.762 5.531-12.263 12.324-12.263zm-.005 22.466h.005c5.645 0 10.24-4.573 10.242-10.194a10.107 10.107 0 00-2.997-7.211 10.197 10.197 0 00-7.241-2.99c-5.65 0-10.245 4.573-10.247 10.193a10.126 10.126 0 001.566 5.425l.243.386-1.034 3.761 3.876-1.012.374.221a10.267 10.267 0 005.213 1.421zm3.519-8.631c.282.102 1.796.843 2.104.997l.169.082c.214.103.36.173.42.275.078.128.078.742-.179 1.458-.256.716-1.486 1.369-2.078 1.457-.53.079-1.202.112-1.94-.122a17.65 17.65 0 01-1.755-.645c-2.886-1.24-4.837-4.025-5.206-4.551a3.38 3.38 0 00-.054-.076l-.003-.004c-.164-.218-1.254-1.667-1.254-3.166 0-1.412.696-2.151 1.017-2.492l.06-.065c.283-.307.616-.383.822-.383.205 0 .41.002.59.01.022.002.045.001.068.001.18 0 .404-.002.624.526.085.201.208.5.338.815.266.644.56 1.357.612 1.46.077.153.128.332.026.537-.103.204-.437.636-.77 1.048a3.565 3.565 0 01-.044.052c-.126.15-.252.299-.091.573.18.307.797 1.31 1.713 2.123a7.96 7.96 0 002.273 1.43c.084.037.153.066.203.091.308.154.487.128.667-.077.18-.204.77-.894.975-1.201.205-.307.41-.256.693-.153z" fill="#fff"/></svg>