<svg width="45" height="45" fill="none" xmlns="http://www.w3.org/2000/svg"><path fill-rule="evenodd" clip-rule="evenodd" d="M22.5 0C10.074 0 0 10.074 0 22.5S10.074 45 22.5 45 45 34.926 45 22.5 34.926 0 22.5 0zm-4.947 10.572c1.28-.058 1.689-.072 4.948-.072h-.004c3.26 0 3.668.014 4.948.072 1.277.059 2.15.261 2.915.558a5.86 5.86 0 012.125 1.384 5.891 5.891 0 011.385 2.126c.295.762.497 1.634.557 2.912.058 1.28.073 1.69.073 4.948 0 3.26-.015 3.667-.073 4.947-.06 1.277-.262 2.15-.557 2.913a5.89 5.89 0 01-1.385 2.125 5.872 5.872 0 01-2.124 1.385c-.764.297-1.637.5-2.914.558-1.28.058-1.688.072-4.947.072-3.26 0-3.668-.014-4.948-.072-1.277-.059-2.15-.261-2.913-.558a5.876 5.876 0 01-2.125-1.385 5.881 5.881 0 01-1.384-2.126c-.297-.763-.499-1.635-.558-2.912-.058-1.28-.072-1.688-.072-4.947 0-3.259.015-3.668.072-4.948.058-1.277.26-2.15.558-2.913a5.892 5.892 0 011.385-2.125 5.876 5.876 0 012.125-1.384c.763-.297 1.636-.499 2.913-.558z" fill="#fff"/><path fill-rule="evenodd" clip-rule="evenodd" d="M21.426 12.663h1.077c3.204 0 3.583.011 4.849.069 1.17.053 1.805.249 2.228.413.56.217.959.477 1.379.897.42.42.68.82.898 1.38.164.423.36 1.058.413 2.228.057 1.265.07 1.645.07 4.848 0 3.202-.013 3.582-.07 4.847-.053 1.17-.249 1.805-.413 2.228a3.71 3.71 0 01-.898 1.378c-.42.42-.819.68-1.38.898-.422.165-1.057.36-2.227.413-1.265.058-1.645.07-4.85.07-3.204 0-3.583-.012-4.848-.07-1.17-.054-1.805-.25-2.229-.414a3.717 3.717 0 01-1.38-.897 3.72 3.72 0 01-.898-1.38c-.164-.422-.36-1.057-.413-2.227-.057-1.265-.069-1.645-.069-4.85 0-3.204.012-3.582.069-4.847.053-1.17.249-1.805.413-2.228.218-.56.478-.96.898-1.38.42-.42.82-.68 1.38-.898.423-.165 1.059-.36 2.229-.414 1.107-.05 1.536-.065 3.772-.067v.003zm7.482 1.992a1.44 1.44 0 100 2.88 1.44 1.44 0 000-2.88zM16.34 22.5a6.163 6.163 0 1112.325 0 6.163 6.163 0 01-12.325 0z" fill="#fff"/><path d="M22.501 18.5a4 4 0 110 8 4 4 0 010-8z" fill="#fff"/></svg>