<svg width="350" height="1170" fill="none" xmlns="http://www.w3.org/2000/svg"><path d="M469.094 269.736l155.981-.229m-.229 90.371l77.876-135.098m78.335 45.415l-78.106-134.868m78.336-44.957l-155.982.23M625.304.229l-77.646 134.868m-78.333-45.186L547.43 224.55m77.183 315.152l155.982-.229m-.002 90.37l77.876-134.868m78.107 45.186l-78.105-134.868m78.565-44.957l-156.211.23m.229-90.371l-77.876 134.868m-78.334-45.186l78.336 134.868m-390.528 44.498l155.982-.23m-.002 90.371l77.646-134.868m.232-89.683l78.106 134.868-77.877 135.097m78.106-314.921l-155.981.229m.229-90.37l-77.876 135.097m-78.334-45.415l78.106 134.868M.691 538.785l155.982-.229m-.229 90.37l77.876-134.868m78.335 45.186l-78.106-134.868m78.335-44.957l-155.981.23m.229-90.371L79.256 404.376M.922 358.96l78.106 134.868m389.374 315.38l155.982-.229m-.229 90.37l77.876-134.868m78.333 45.186l-78.335-134.868m78.566-44.957l-155.981.23m-155.981-.689l78.106 134.868m546.051-224.32l-156.212.23-77.646 134.868m233.628-44.727l77.87-135.097m78.34 45.414l-78.33-134.868m78.56-44.956l-155.98.229m0-90.371l-77.88 134.869m-78.103-45.186l78.103 134.638M780.367 809.668l155.982-.23m-.229 90.371L1014 764.941m78.33 45.186l-78.11-134.869m78.34-44.956l-155.981.229m-155.981-.688l78.106 134.868m77.183 314.919l155.983-.23m0 90.37l77.87-134.86m78.34 45.18l-78.34-134.866m78.57-44.957l-156.21.23m.23-90.371l-77.88 135.097m-78.332-45.415l78.332 134.872M156.211 808.749h156.211m-.232 90.371l77.876-135.097m78.338 45.185L390.069 674.57m78.566-45.186l-155.982.229m-.002-90.37L234.775 674.34m-78.333-45.415l78.335 134.868m77.188 315.157l155.981-.23m155.982.68l-78.106-134.864m78.336-44.956H468.176m.229-90.142l-77.876 134.869m-78.333-45.186l78.335 134.639M0 1078.49l155.981-.23m-.001 90.37l77.646-135.1m78.337 45.41l-78.105-134.863m78.335-44.957l-155.982.23m.229-90.371L78.564 943.847M.231 898.661l78.106 134.869m545.593 45.87l155.981-.23m-.002 90.38l77.876-135.1m78.108 45.18l-78.106-134.636m78.336-45.185l-155.982.229m.229-90.37l-77.876 135.097m-78.333-45.415l78.335 134.87m77.412 135.32H623.927m-.002-90.14l-77.876 134.87" stroke="url(#paint0_linear)" stroke-width=".25" stroke-miterlimit="10"/><defs><linearGradient id="paint0_linear" x1="1120.5" y1=".229" x2="-567.5" y2=".229" gradientUnits="userSpaceOnUse"><stop/><stop offset="1" stop-opacity="0"/></linearGradient></defs></svg>